Coordinates
version=1
nRows=20
nColumns=34
inDegrees=yes

Units are S.I. units (second, meters, Newtons, ...)
If the header above contains a line with 'inDegrees', this indicates whether rotational values are in degrees (yes) or radians (no).

endheader
time	pelvis_tilt	pelvis_list	pelvis_rotation	pelvis_tx	pelvis_ty	pelvis_tz	hip_flexion_r	hip_adduction_r	hip_rotation_r	knee_angle_r	ankle_angle_r	subtalar_angle_r	mtp_angle_r	hip_flexion_l	hip_adduction_l	hip_rotation_l	knee_angle_l	ankle_angle_l	subtalar_angle_l	mtp_angle_l	lumbar_extension	lumbar_bending	lumbar_rotation	arm_flex_r	arm_add_r	arm_rot_r	elbow_flex_r	pro_sup_r	arm_flex_l	arm_add_l	arm_rot_l	elbow_flex_l	pro_sup_l
      0.00000000	     -3.64955405	      0.25511132	      4.67769689	      0.28664354	      0.94051434	     -0.05120715	      2.76050212	     -5.24301326	     -3.59617308	      4.81243502	      8.16503148	     -7.86933874	      0.00000000	      4.35476428	     -2.94110623	     -0.90588273	      2.34238914	      6.67846440	     -2.23778208	      0.00000000	      1.35716651	      2.03591841	      3.31076134	     67.04661294	      7.73216302	     64.93892648	    114.34472258	    101.05618160	     65.66273902	     24.09863770	     83.69718592	    137.98899513	    103.19404596
      0.01666670	     -4.93119967	     -0.01852491	      4.48568562	      0.28732595	      0.93637021	     -0.05196375	      3.57757404	     -4.86223559	     -4.26371081	      3.21180426	     10.33582627	     -4.00525748	      0.00000000	      5.58207902	     -3.11649223	     -1.86540389	      1.83068348	      4.62041155	     -3.57752827	      0.00000000	      3.93327029	      2.76674446	      6.61812498	     70.39198214	      2.94424608	     64.39512477	    114.43142405	    101.33473906	     66.94205909	     23.32530828	     79.07005218	    145.58499612	    101.40131062
      0.03333330	     -5.51442358	      0.24094732	      4.14829501	      0.29002882	      0.93660536	     -0.05163169	      3.82483830	     -5.02502068	     -4.40599266	      2.27318127	     10.87003708	     -3.93547145	      0.00000000	      6.30126523	     -2.71686123	     -1.96750193	      1.83044867	      5.18303908	     -2.68046270	      0.00000000	      5.53165491	      2.33324095	      7.46474496	     69.82307625	      1.27567876	     63.88074734	    116.77399630	    101.72460266	     65.86250513	     21.62956260	     77.45953992	    146.51579300	     99.50651632
      0.05000000	     -5.49327330	      0.52587531	      3.87216030	      0.28818054	      0.93757411	     -0.05183219	      3.63571597	     -5.35558331	     -4.14013129	      1.68268743	     11.07972594	     -3.87567608	      0.00000000	      5.89704227	     -2.34906004	     -1.81408937	      1.10271901	      5.01336742	     -2.55879701	      0.00000000	      5.91662368	      2.08930751	      7.65329186	     69.17310241	      1.58801728	     64.64112972	    117.19008185	    101.81859351	     65.15893208	     21.59962791	     77.64475721	    146.28051562	     99.32244178
      0.06666670	     -5.72710740	      0.59391262	      3.54835139	      0.28959667	      0.93717812	     -0.05155714	      3.74534748	     -5.40429612	     -3.84656700	      1.42225232	     10.73472758	     -4.12038622	      0.00000000	      5.86411663	     -2.29156427	     -2.05927337	      0.60063319	      5.23013575	     -1.53636235	      0.00000000	      6.96784915	      1.60818251	      8.96738008	     67.64419119	      0.03359881	     64.63507450	    118.31577532	    105.31168961	     63.91500061	     23.82911746	     80.37881009	    145.40253369	     89.68973273
      0.08333330	     -5.66391873	      0.74558872	      3.47426209	      0.29060071	      0.93665135	     -0.05190187	      3.69186584	     -5.56501531	     -3.76042884	      1.55839078	     10.75221442	     -4.04517878	      0.00000000	      5.61742648	     -2.12348526	     -1.84511770	      0.40578057	      4.97087683	     -1.45310930	      0.00000000	      7.16258104	      1.54808968	      9.11488988	     67.18250399	      0.30431151	     65.16087622	    118.07561772	    105.36472517	     63.86136598	     24.08551285	     80.32469078	    145.41504589	     89.58027387
      0.10000000	     -5.65372834	      0.79475544	      3.02352823	      0.28946402	      0.93220366	     -0.05050747	      3.78006950	     -5.59386488	     -3.73136354	      1.67768585	     10.87066774	     -4.06618052	      0.00000000	      5.45880459	     -2.14117779	     -1.62099476	      0.00000000	      5.24433593	     -1.55010892	      0.00000000	      7.67204267	      1.37665192	      9.54667359	     67.43071951	      0.52483923	     65.22307256	    117.33095438	    105.40108731	     63.82681378	     25.60354596	     80.36243177	    145.66201420	     89.46756893
      0.11666670	     -5.68458777	      0.86307419	      3.05195152	      0.29132578	      0.93482734	     -0.05152560	      3.76147630	     -5.65938241	     -3.61492809	      1.82330265	     10.78777817	     -4.03877977	      0.00000000	      5.54046494	     -2.07639212	     -1.51757114	      0.23895247	      5.06108582	     -1.59614918	      0.00000000	      7.52804806	      1.48407442	      9.70407566	     67.11946894	      0.30202379	     65.24084747	    117.02752069	    105.43053274	     63.76235428	     25.25359404	     80.56304675	    145.69420813	     89.35621219
      0.13333330	     -5.78758408	      0.95318310	      2.85265556	      0.29356985	      0.93438517	     -0.05130017	      3.81576717	     -5.75729747	     -3.67071573	      1.82719009	     10.80129340	     -4.12668527	      0.00000000	      5.46762909	     -1.99417931	     -1.50580459	      0.14240963	      5.12608041	     -1.81559699	      0.00000000	      7.69117981	      1.45006344	      9.74499841	     66.95568447	      0.87504860	     65.16593290	    116.95605224	    105.45524790	     63.46699245	     25.69073327	     80.79302131	    145.73864225	     89.22688534
      0.15000000	     -5.80959072	      0.95598505	      2.85150522	      0.29309526	      0.93465712	     -0.05132030	      3.80690519	     -5.75617944	     -3.67063060	      1.83153595	     10.80066133	     -4.12669989	      0.00000000	      5.45766283	     -1.99544822	     -1.50584555	      0.14800893	      5.12543402	     -1.81616690	      0.00000000	      7.69096199	      1.45111314	      9.74380877	     66.95452327	      0.87513601	     65.16528106	    116.95631177	    105.45528898	     63.46495753	     25.69171898	     80.79429109	    145.73898773	     89.22653110
      0.16666670	     -6.14462125	      0.91387091	      2.90863838	      0.29587944	      0.93449086	     -0.05133150	      3.98686779	     -5.72075734	     -3.68320663	      1.74991686	     10.33686646	     -4.34920917	      0.00000000	      5.77533548	     -2.02412144	     -0.87356474	      0.25492184	      4.62150848	     -2.63246191	      0.00000000	      7.95799246	      1.42557617	      9.16449433	     65.89773742	      1.33478074	     63.72506838	    117.32225101	    105.53971888	     62.19611258	     25.39684655	     82.71899563	    145.39518558	     88.37546706
      0.18333330	     -6.31001666	      0.91113810	      2.71780686	      0.29517422	      0.93106125	     -0.05093240	      4.27736099	     -5.69250198	     -3.35288086	      1.85715630	     10.36192096	     -4.74113542	      0.00000000	      5.91607662	     -2.04100975	      0.07729313	      0.23326318	      4.15810528	     -4.52662146	      0.00000000	      7.82163009	      1.40689600	      9.56128874	     65.99046773	      1.15650185	     63.08264479	    117.85370965	    106.79798440	     62.61382154	     25.59998390	     83.36489519	    144.85023921	     77.86118125
      0.20000000	     -6.29593502	      0.85613441	      2.51008245	      0.29666218	      0.93281190	     -0.05085196	      4.24998667	     -5.61295526	     -3.38525298	      1.74061525	     10.15985569	     -4.59698367	      0.00000000	      5.73299262	     -2.14728814	     -0.24829004	      0.12253951	      3.99643399	     -4.04289236	      0.00000000	      7.22835860	      1.50506724	      8.10861447	     66.04168802	      2.31347845	     62.47186692	    117.33881661	    106.74687906	     62.93408777	     23.35301355	     82.37961391	    141.82865685	     77.28003211
      0.21666670	     -6.31364648	      0.83020405	      2.23215074	      0.29620663	      0.93272748	     -0.05037076	      4.31969998	     -5.55949953	     -3.21471292	      1.54608356	     10.17801142	     -4.45776398	      0.00000000	      5.67797523	     -2.20196103	     -0.35880169	      0.02130895	      4.04964636	     -4.01150826	      0.00000000	      6.77020407	      1.66013765	      7.11090294	     66.17639024	      3.26654923	     62.37678318	    117.13403341	    106.67265606	     63.14968478	     21.66358301	     81.33509025	    139.63092101	     76.72303007
      0.23333330	     -6.14708525	      0.75550126	      2.04841405	      0.29640852	      0.93253401	     -0.05033783	      4.18157874	     -5.44006774	     -3.13896007	      1.45538928	     10.04433682	     -4.16885407	      0.00000000	      5.54997799	     -2.33963272	     -0.23010698	      0.00000000	      3.96160886	     -4.12494333	      0.00000000	      5.99377330	      1.97315483	      5.36007990	     66.39506594	      4.66798041	     62.18285654	    116.20152515	    106.11661068	     63.58910587	     18.09993683	     78.38901532	    136.34779655	     74.22525407
      0.25000000	     -6.12993252	      0.78435577	      1.97839057	      0.29771011	      0.93334787	     -0.05043692	      4.13521208	     -5.46791586	     -3.18285485	      1.36855173	      9.92461876	     -4.22308234	      0.00000000	      5.54382360	     -2.32743693	     -0.18738943	      0.00000000	      3.74343225	     -4.07207808	      0.00000000	      5.47728293	      1.83419274	      3.70250564	     66.34833124	      5.50287627	     61.95357675	    115.52641562	    105.87054834	     63.80781491	     14.61717049	     75.74524856	    131.28984394	     73.32525731
      0.26666670	     -5.98264525	      0.82864154	      1.67294873	      0.29601571	      0.93506722	     -0.05068966	      4.01042188	     -5.51323195	     -2.94444317	      1.20936108	      9.88519905	     -4.02849701	      0.00000000	      5.42531882	     -2.31944967	     -0.37126319	      0.00000000	      3.51395140	     -4.09890117	      0.00000000	      5.09977798	      1.81736836	      2.27432286	     66.08684501	      6.67047579	     62.16049855	    114.88248758	    105.62112112	     63.40044968	     11.94599276	     73.14807242	    126.94067195	     72.63908692
      0.28333330	     -5.69765074	      0.82594602	      1.28532735	      0.29851916	      0.93618271	     -0.04986461	      3.66034313	     -5.48427102	     -2.82942742	      1.02571217	      9.61375365	     -3.78985723	      0.00000000	      5.07876846	     -2.40055997	     -0.57070356	      0.00000000	      3.26429783	     -4.11869682	      0.00000000	      4.99810244	      1.83058361	      1.45412643	     65.83402522	      7.36993441	     62.34529821	    113.84829188	    105.25709680	     62.51728744	     10.15633153	     70.42084661	    123.45613296	     72.02730537
      0.30000000	     -5.46626837	      0.78976887	      0.96173659	      0.29557781	      0.93424714	     -0.05016521	      3.46393933	     -5.43681185	     -2.80452178	      1.02843829	      9.41013746	     -3.64809271	      0.00000000	      4.83320980	     -2.46007673	     -0.71366457	      0.00000000	      3.36172678	     -4.19733046	      0.00000000	      4.97789723	      1.88014317	      0.87908168	     65.85540723	      7.55660343	     62.37785219	    112.53071568	    104.69852791	     61.79633427	      8.25615347	     67.14424702	    119.65035572	     71.42769821
      0.31666670	     -5.22677119	      0.85070952	      0.68588342	      0.29676180	      0.93461312	     -0.04993537	      3.23184462	     -5.48356990	     -2.61211229	      0.91670967	      9.39142126	     -3.55576658	      0.00000000	      4.46790479	     -2.41899906	     -0.96574474	      0.00000000	      3.20903699	     -4.37647881	      0.00000000	      5.01416179	      1.82769278	      0.66031037	     65.86209897	      7.69115047	     62.63223364	    111.47068864	    104.20907429	     60.99802302	      7.31769467	     64.52080055	    116.67545711	     71.06860061
